<?xml version="1.0" standalone="no"?>
<!DOCTYPE svg PUBLIC "-//W3C//DTD SVG 20010904//EN"
 "http://www.w3.org/TR/2001/REC-SVG-20010904/DTD/svg10.dtd">
<svg version="1.0" xmlns="http://www.w3.org/2000/svg"
 width="452.000000pt" height="452.000000pt" viewBox="0 0 452.000000 452.000000"
 preserveAspectRatio="xMidYMid meet">
<metadata>
Created by potrace 1.14, written by Peter Selinger 2001-2017
</metadata>
<g transform="translate(0.000000,452.000000) scale(0.100000,-0.100000)"
fill="#000000" stroke="none">
<path d="M1443 3950 c-47 -13 -82 -42 -103 -85 -22 -45 -22 -56 -22 -354 l0
-309 -415 0 -415 -1 -38 -26 c-77 -54 -73 -3 -74 -900 -1 -440 2 -815 7 -834
12 -47 44 -87 85 -107 31 -14 86 -17 441 -18 l406 -1 2 -302 c1 -199 5 -314
13 -337 13 -41 55 -84 96 -100 21 -9 367 -12 1309 -11 1220 1 1282 2 1318 19
47 23 75 62 85 118 12 68 6 3119 -6 3148 -13 32 -39 62 -76 85 -28 19 -73 19
-1312 20 -706 0 -1291 -2 -1301 -5z"/>
</g>
</svg>
